<?xml version="1.0" standalone="no"?>
<svg xmlns="http://www.w3.org/2000/svg" viewBox="0 0 250.928 53" width="250.928" height="53"><rect fill="none" stroke="#bba364" stroke-width="3" width="247.928" height="50" x="1.5" y="1.5"></rect><g fill="#0a1256" color="#0a1256" transform="translate(12, 12.001) scale(0.58)"><svg width="50.0" height="50.0" x="0.0" y="0.0" viewBox="0 0 50 50"><path fill="currentColor" fill-rule="evenodd" d="M24.968 0C11.178 0 0 11.178 0 24.968c0 7.13 2.993 13.555 7.784 18.104V28.647h4.083v17.576a24.911 24.911 0 0 0 5.424 2.506V15.22h4.083v34.456c1.174.17 2.373.262 3.594.262.616 0 1.225-.03 1.83-.075V34.606h4.083v14.62a24.785 24.785 0 0 0 5.424-2.014V23.783h4.083V44.6c5.81-4.572 9.549-11.663 9.549-19.63C49.937 11.178 38.757 0 24.967 0"></path></svg></g><line x1="51.5" y1="0" x2="51.5" y2="100%" stroke="#bba364" stroke-width="3"></line><path fill="#0a1256" fill-rule="nonzero" d="M5.06 13.30Q5.06 15.74 4.74 17.26Q4.42 18.77 3.42 19.97Q2.42 21.17 0.41 22.27L0.41 22.27Q0.07 22.08 0 21.65L0 21.65Q1.44 20.42 2.12 19.04Q2.81 17.66 2.81 15.48L2.81 15.48L2.81 3.12Q2.81 1.92 2.46 1.50Q2.11 1.08 1.15 1.03L1.15 1.03Q1.03 0.70 1.03 0L1.03 0Q2.09 0.07 3.94 0.07L3.94 0.07Q5.98 0.07 6.84 0L6.84 0Q6.84 0.70 6.72 1.03L6.72 1.03Q5.78 1.08 5.42 1.51Q5.06 1.94 5.06 3.12L5.06 3.12L5.06 13.30ZM29.21 15.31Q29.33 15.72 29.33 16.37L29.33 16.37Q28.22 16.30 26.45 16.30L26.45 16.30Q24.74 16.30 23.52 16.37L23.52 16.37Q23.52 15.79 23.66 15.34L23.66 15.34Q24.58 15.24 24.89 14.93Q25.20 14.62 25.20 13.78L25.20 13.78Q25.20 13.30 25.13 12.58L25.13 12.58L24.26 4.34L19.30 16.34Q18.89 16.51 18.31 16.51L18.31 16.51L12.72 4.37L11.95 12.07Q11.88 12.79 11.88 13.32L11.88 13.32Q11.88 14.42 12.25 14.84Q12.62 15.26 13.51 15.34L13.51 15.34Q13.63 15.74 13.63 16.37L13.63 16.37Q12.48 16.30 11.06 16.30L11.06 16.30Q9.65 16.30 8.66 16.37L8.66 16.37Q8.66 15.74 8.78 15.34L8.78 15.34Q9.46 15.26 9.82 15Q10.18 14.74 10.38 14.03Q10.58 13.32 10.73 11.86L10.73 11.86L11.50 3.31Q11.52 3.10 11.52 2.74L11.52 2.74Q11.52 1.80 11.14 1.42Q10.75 1.03 9.89 1.03L9.89 1.03Q9.77 0.65 9.77 0L9.77 0Q10.49 0.07 11.59 0.07L11.59 0.07Q12.48 0.07 13.42 0L13.42 0L19.42 13.27L24.65 0Q25.46 0.07 26.52 0.07L26.52 0.07Q27.38 0.07 28.34 0L28.34 0Q28.34 0.58 28.22 1.03L28.22 1.03Q27.41 1.03 26.99 1.44Q26.57 1.85 26.57 2.86L26.57 2.86Q26.57 3.24 26.59 3.46L26.59 3.46L27.46 12.26Q27.58 13.46 27.77 14.10Q27.96 14.74 28.30 15Q28.63 15.26 29.21 15.31L29.21 15.31ZM42.72 12.94Q43.27 13.87 43.66 14.33Q44.04 14.78 44.56 15Q45.07 15.22 45.96 15.26L45.96 15.26Q45.96 15.96 45.86 16.30L45.86 16.30Q43.42 16.30 42.10 16.51L42.10 16.51Q41.18 15.05 40.49 13.68L40.49 13.68L40.20 13.15Q39.46 11.81 38.84 10.91Q38.23 10.01 37.22 8.93L37.22 8.93L36.48 8.95Q36.12 8.95 35.54 8.90L35.54 8.90L35.54 13.25Q35.54 14.45 35.87 14.87Q36.19 15.29 37.13 15.34L37.13 15.34Q37.25 15.70 37.25 16.37L37.25 16.37Q36.22 16.30 34.39 16.30L34.39 16.30Q32.59 16.30 31.51 16.37L31.51 16.37Q31.51 15.72 31.63 15.34L31.63 15.34Q32.62 15.29 32.95 14.87Q33.29 14.45 33.29 13.25L33.29 13.25L33.29 3.12Q33.29 1.92 32.94 1.48Q32.59 1.03 31.63 1.03L31.63 1.03Q31.51 0.65 31.51 0.02L31.51 0.02Q32.47 0.07 34.39 0.07L34.39 0.07Q35.71 0.07 36.38 0.05L36.38 0.05L38.40 0.02Q40.99 0.02 42.31 1.14Q43.63 2.26 43.63 4.06L43.63 4.06Q43.63 5.64 42.56 6.79Q41.50 7.94 39.60 8.42L39.60 8.42Q40.44 9.31 41.02 10.16Q41.59 11.02 42.72 12.94L42.72 12.94ZM35.54 7.80Q36.12 7.87 36.60 7.87L36.60 7.87Q38.69 7.87 39.98 6.97Q41.28 6.07 41.28 4.30L41.28 4.30Q41.28 2.78 40.33 1.93Q39.38 1.08 37.32 1.08L37.32 1.08Q36.46 1.08 35.54 1.27L35.54 1.27L35.54 7.80ZM48.41 16.34Q48.41 15.60 48.53 15.26L48.53 15.26Q49.13 15.22 49.43 15.07Q49.73 14.93 49.85 14.57Q49.97 14.21 49.97 13.49L49.97 13.49L49.97 7.08Q49.97 6.38 49.85 6.02Q49.73 5.66 49.43 5.52Q49.13 5.38 48.53 5.33L48.53 5.33Q48.41 4.97 48.41 4.25L48.41 4.25Q49.94 4.30 51.10 4.30L51.10 4.30Q52.06 4.30 53.74 4.25L53.74 4.25Q53.74 4.99 53.64 5.33L53.64 5.33Q52.78 5.38 52.48 5.71Q52.18 6.05 52.18 7.08L52.18 7.08L52.18 13.49Q52.18 14.52 52.48 14.87Q52.78 15.22 53.64 15.26L53.64 15.26Q53.74 15.62 53.74 16.34L53.74 16.34Q52.10 16.30 51.10 16.30L51.10 16.30Q49.90 16.30 48.41 16.34L48.41 16.34ZM62.78 11.02Q64.06 11.02 64.86 10.39Q65.66 9.77 65.66 8.33L65.66 8.33Q65.66 6.96 64.81 6.16Q63.96 5.35 62.21 5.35L62.21 5.35Q61.75 5.35 61.15 5.50L61.15 5.50L61.15 13.22Q61.15 14.35 61.58 14.78Q62.02 15.22 63.07 15.26L63.07 15.26Q63.19 15.62 63.19 16.34L63.19 16.34Q61.85 16.30 60.41 16.30L60.41 16.30Q58.58 16.30 57.38 16.34L57.38 16.34Q57.38 15.60 57.50 15.26L57.50 15.26Q58.34 15.22 58.64 14.87Q58.94 14.52 58.94 13.49L58.94 13.49L58.94 7.08Q58.94 6.38 58.82 6.02Q58.70 5.66 58.40 5.52Q58.10 5.38 57.50 5.33L57.50 5.33Q57.38 4.97 57.38 4.25L57.38 4.25Q59.64 4.30 60.34 4.30L60.34 4.30L63.22 4.25Q65.69 4.25 66.84 5.28Q67.99 6.31 67.99 7.92L67.99 7.92Q67.99 9.07 67.44 10.03Q66.89 10.99 65.80 11.57Q64.70 12.14 63.17 12.14L63.17 12.14Q62.23 12.14 61.70 11.98L61.70 11.98Q61.66 11.64 61.66 11.47L61.66 11.47Q61.66 11.16 61.73 10.94L61.73 10.94Q62.09 11.02 62.78 11.02L62.78 11.02ZM80.93 12.89Q81.58 13.01 81.98 13.42L81.98 13.42Q81.55 14.54 81.34 16.32L81.34 16.32L76.70 16.30Q73.25 16.30 71.14 16.34L71.14 16.34Q71.14 15.60 71.26 15.26L71.26 15.26Q71.86 15.22 72.16 15.07Q72.46 14.93 72.58 14.54Q72.70 14.16 72.70 13.39L72.70 13.39L72.70 7.08Q72.70 6.38 72.56 6.02Q72.43 5.66 72.13 5.52Q71.83 5.38 71.26 5.33L71.26 5.33Q71.14 4.97 71.14 4.25L71.14 4.25Q72.86 4.30 74.90 4.30L74.90 4.30Q79.32 4.30 80.81 4.25L80.81 4.25Q81.07 6.50 81.26 7.22L81.26 7.22Q80.86 7.49 80.18 7.49L80.18 7.49Q80.09 6.48 79.36 5.90Q78.62 5.33 76.78 5.33L76.78 5.33L74.90 5.33L74.90 9.74L76.10 9.74Q77.38 9.74 77.87 9.46Q78.36 9.17 78.38 8.40L78.38 8.40Q78.91 8.23 79.49 8.23L79.49 8.23Q79.44 8.83 79.44 10.25L79.44 10.25Q79.44 11.78 79.49 12.34L79.49 12.34Q78.84 12.34 78.43 12.19L78.43 12.19Q78.36 11.40 77.87 11.11Q77.38 10.82 76.10 10.82L76.10 10.82L74.90 10.82L74.90 13.34Q74.90 14.11 75.06 14.51Q75.22 14.90 75.61 15.06Q76.01 15.22 76.80 15.22L76.80 15.22L76.94 15.22Q78.34 15.22 79.09 14.98Q79.85 14.74 80.22 14.27Q80.59 13.80 80.93 12.89L80.93 12.89ZM95.93 4.25Q95.86 5.54 96.10 7.37L96.10 7.37Q95.59 7.58 94.92 7.58L94.92 7.58Q94.87 6.43 94.31 5.88Q93.74 5.33 92.54 5.33L92.54 5.33L91.49 5.33L91.49 13.56Q91.49 14.30 91.62 14.65Q91.75 15 92.10 15.14Q92.45 15.29 93.17 15.34L93.17 15.34Q93.29 15.62 93.29 16.34L93.29 16.34Q91.51 16.30 90.38 16.30L90.38 16.30Q88.99 16.30 87.41 16.34L87.41 16.34Q87.41 15.62 87.53 15.34L87.53 15.34Q88.25 15.29 88.62 15.14Q88.99 15 89.14 14.64Q89.28 14.28 89.28 13.56L89.28 13.56L89.28 5.33L88.30 5.33Q87.34 5.33 86.82 5.58Q86.30 5.83 86.06 6.29Q85.82 6.74 85.66 7.58L85.66 7.58Q84.89 7.58 84.53 7.37L84.53 7.37Q84.89 5.74 84.89 4.25L84.89 4.25Q86.14 4.30 90.38 4.30L90.38 4.30Q94.70 4.30 95.93 4.25L95.93 4.25ZM99.02 16.34Q99.02 15.60 99.14 15.26L99.14 15.26Q99.74 15.22 100.04 15.07Q100.34 14.93 100.46 14.57Q100.58 14.21 100.58 13.49L100.58 13.49L100.58 7.08Q100.58 6.38 100.46 6.02Q100.34 5.66 100.04 5.52Q99.74 5.38 99.14 5.33L99.14 5.33Q99.02 4.97 99.02 4.25L99.02 4.25Q100.56 4.30 101.71 4.30L101.71 4.30Q102.67 4.30 104.35 4.25L104.35 4.25Q104.35 4.99 104.26 5.33L104.26 5.33Q103.39 5.38 103.09 5.71Q102.79 6.05 102.79 7.08L102.79 7.08L102.79 13.49Q102.79 14.52 103.09 14.87Q103.39 15.22 104.26 15.26L104.26 15.26Q104.35 15.62 104.35 16.34L104.35 16.34Q102.72 16.30 101.71 16.30L101.71 16.30Q100.51 16.30 99.02 16.34L99.02 16.34ZM117.65 12.89Q118.39 12.96 118.85 13.32L118.85 13.32Q118.68 13.90 118.57 14.76Q118.46 15.62 118.44 16.34L118.44 16.34Q116.42 16.30 112.94 16.30L112.94 16.30Q110.06 16.30 108.24 16.34L108.24 16.34Q108.05 15.96 108.05 15.41L108.05 15.41Q108.05 15.41 111.14 11.28L111.14 11.28Q114.05 7.49 115.54 5.33L115.54 5.33L112.82 5.33Q111.86 5.33 111.31 5.52Q110.76 5.71 110.42 6.23Q110.09 6.74 109.85 7.75L109.85 7.75Q108.91 7.75 108.55 7.54L108.55 7.54Q108.74 6.86 108.85 5.95Q108.96 5.04 108.96 4.25L108.96 4.25Q110.74 4.30 114.10 4.30L114.10 4.30Q116.74 4.30 118.22 4.25L118.22 4.25Q118.46 4.73 118.46 5.18L118.46 5.18Q117.22 7.06 115.97 8.74Q114.72 10.42 112.73 13.01L112.73 13.01Q111.62 14.50 111.05 15.24L111.05 15.24L113.95 15.24Q115.27 15.24 115.96 15.06Q116.64 14.88 117.02 14.39Q117.41 13.90 117.65 12.89L117.65 12.89ZM122.66 16.34Q122.66 15.60 122.78 15.26L122.78 15.26Q123.38 15.22 123.68 15.07Q123.98 14.93 124.10 14.57Q124.22 14.21 124.22 13.49L124.22 13.49L124.22 7.08Q124.22 6.38 124.10 6.02Q123.98 5.66 123.68 5.52Q123.38 5.38 122.78 5.33L122.78 5.33Q122.66 4.97 122.66 4.25L122.66 4.25Q124.20 4.30 125.35 4.30L125.35 4.30Q126.31 4.30 127.99 4.25L127.99 4.25Q127.99 4.99 127.90 5.33L127.90 5.33Q127.03 5.38 126.73 5.71Q126.43 6.05 126.43 7.08L126.43 7.08L126.43 13.49Q126.43 14.52 126.73 14.87Q127.03 15.22 127.90 15.26L127.90 15.26Q127.99 15.62 127.99 16.34L127.99 16.34Q126.36 16.30 125.35 16.30L125.35 16.30Q124.15 16.30 122.66 16.34L122.66 16.34ZM138.12 16.51Q136.06 16.51 134.47 15.74Q132.89 14.98 132.01 13.58Q131.14 12.19 131.14 10.34L131.14 10.34Q131.14 8.52 132.01 7.10Q132.89 5.69 134.48 4.91Q136.08 4.13 138.17 4.13L138.17 4.13Q140.23 4.13 141.82 4.90Q143.40 5.66 144.28 7.07Q145.15 8.47 145.15 10.30L145.15 10.30Q145.15 12.14 144.28 13.55Q143.40 14.95 141.80 15.73Q140.21 16.51 138.12 16.51L138.12 16.51ZM138.46 15.41Q140.40 15.41 141.54 14.11Q142.68 12.82 142.68 10.66L142.68 10.66Q142.68 9.10 142.06 7.86Q141.43 6.62 140.32 5.93Q139.20 5.23 137.81 5.23L137.81 5.23Q135.86 5.23 134.74 6.54Q133.61 7.85 133.61 9.98L133.61 9.98Q133.61 11.59 134.23 12.83Q134.86 14.06 135.96 14.74Q137.06 15.41 138.46 15.41L138.46 15.41ZM159.94 4.30Q160.85 4.30 161.95 4.25L161.95 4.25Q161.95 4.97 161.86 5.33L161.86 5.33Q161.35 5.38 161.09 5.59Q160.82 5.81 160.72 6.32Q160.61 6.84 160.61 7.85L160.61 7.85L160.61 16.32Q160.30 16.46 159.62 16.46L159.62 16.46L151.01 6.94L151.01 12.70Q151.01 13.73 151.14 14.26Q151.27 14.78 151.58 15Q151.90 15.22 152.50 15.26L152.50 15.26Q152.62 15.65 152.62 16.34L152.62 16.34Q151.32 16.30 150.48 16.30L150.48 16.30Q149.35 16.30 148.30 16.34L148.30 16.34Q148.30 15.65 148.42 15.26L148.42 15.26Q149.02 15.22 149.32 15Q149.62 14.78 149.75 14.26Q149.88 13.73 149.88 12.70L149.88 12.70L149.88 5.69L149.86 5.66Q149.69 5.50 149.42 5.44Q149.16 5.38 148.42 5.33L148.42 5.33Q148.30 4.90 148.30 4.25L148.30 4.25Q149.16 4.30 149.98 4.30L149.98 4.30Q150.72 4.30 151.49 4.25L151.49 4.25L159.48 13.20L159.48 7.85Q159.48 6.84 159.35 6.32Q159.22 5.81 158.90 5.59Q158.59 5.38 157.97 5.33L157.97 5.33Q157.87 4.78 157.87 4.25L157.87 4.25Q159.07 4.30 159.94 4.30L159.94 4.30ZM165.60 16.34Q165.60 15.60 165.72 15.26L165.72 15.26Q166.32 15.22 166.62 15.07Q166.92 14.93 167.04 14.57Q167.16 14.21 167.16 13.49L167.16 13.49L167.16 7.08Q167.16 6.38 167.04 6.02Q166.92 5.66 166.62 5.52Q166.32 5.38 165.72 5.33L165.72 5.33Q165.60 4.97 165.60 4.25L165.60 4.25Q167.14 4.30 168.29 4.30L168.29 4.30Q169.25 4.30 170.93 4.25L170.93 4.25Q170.93 4.99 170.83 5.33L170.83 5.33Q169.97 5.38 169.67 5.71Q169.37 6.05 169.37 7.08L169.37 7.08L169.37 13.49Q169.37 14.52 169.67 14.87Q169.97 15.22 170.83 15.26L170.83 15.26Q170.93 15.62 170.93 16.34L170.93 16.34Q169.30 16.30 168.29 16.30L168.29 16.30Q167.09 16.30 165.60 16.34L165.60 16.34Z" transform="translate(65 15.364)"></path></svg>